<?xml version="1.0" encoding="UTF-8" standalone="no"?>
<svg
   xmlns:dc="http://purl.org/dc/elements/1.1/"
   xmlns:cc="http://creativecommons.org/ns#"
   xmlns:rdf="http://www.w3.org/1999/02/22-rdf-syntax-ns#"
   xmlns:svg="http://www.w3.org/2000/svg"
   xmlns="http://www.w3.org/2000/svg"
   viewBox="0 0 701.37335 198.57333"
   height="198.57333"
   width="701.37335"
   xml:space="preserve"
   id="svg2"
   version="1.1"><metadata
     id="metadata8"><rdf:RDF><cc:Work
         rdf:about=""><dc:format>image/svg+xml</dc:format><dc:type
           rdf:resource="http://purl.org/dc/dcmitype/StillImage" /></cc:Work></rdf:RDF></metadata><defs
     id="defs6" /><g
     transform="matrix(1.3333333,0,0,-1.3333333,0,198.57333)"
     id="g10"><g
       transform="scale(0.1)"
       id="g12"><path
         id="path14"
         style="fill:#231f20;fill-opacity:1;fill-rule:nonzero;stroke:none"
         d="M 5143.96,12.5898 C 5161.97,3.96094 5178.16,0 5196.17,0 c 38.52,0 64.08,21.9609 64.08,54.7188 0,25.9218 -10.8,37.4531 -49.68,53.2932 -30.24,12.226 -37.08,18.347 -37.08,32.75 0,16.918 12.6,27 33.48,27 14.76,0 28.08,-4.332 41.4,-13.321 l 8.28,21.598 c -18.36,9.723 -34.2,13.68 -52.2,13.68 -35.28,0 -59.76,-20.52 -59.76,-51.117 0,-12.961 4.68,-24.481 14.04,-33.114 8.28,-7.9294 15.84,-11.8864 36.36,-19.8083 30.95,-12.25 36.36,-16.9102 36.36,-32.75 0,-18.3594 -14.4,-30.9688 -34.92,-30.9688 -13.32,0 -27,3.961 -44.28,12.2383 l -8.29,-21.6094 z m -146.15,0 C 5015.81,3.96094 5032.01,0 5050.01,0 c 38.52,0 64.08,21.9609 64.08,54.7188 0,25.9218 -10.8,37.4531 -49.69,53.2932 -30.23,12.226 -37.08,18.347 -37.08,32.75 0,16.918 12.61,27 33.49,27 14.76,0 28.08,-4.332 41.4,-13.321 l 8.28,21.598 c -18.36,9.723 -34.2,13.68 -52.2,13.68 -35.28,0 -59.76,-20.52 -59.76,-51.117 0,-12.961 4.68,-24.481 14.04,-33.114 8.28,-7.9294 15.84,-11.8864 36.36,-19.8083 30.96,-12.25 36.36,-16.9102 36.36,-32.75 0,-18.3594 -14.4,-30.9688 -34.92,-30.9688 -13.32,0 -27,3.961 -44.28,12.2383 l -8.28,-21.6094 z m -159.83,96.8512 c 1.43,36.36 19.8,58.321 49.31,58.321 29.17,0 45.73,-20.524 46.81,-58.321 h -96.12 z m 125.28,-21.9605 c -0.36,29.5195 -2.88,45.3715 -10.08,62.2815 -10.8,25.918 -33.48,39.957 -65.16,39.957 -49.32,0 -79.56,-35.989 -79.56,-95.0393 C 4808.46,35.6406 4841.22,0 4895.58,0 c 21.96,0 41.4,5.76172 60.84,18.0117 l -10.44,21.2266 c -16.92,-11.8789 -32.76,-17.2774 -50.04,-17.2774 -19.08,0 -34.92,7.1993 -44.64,19.8008 -7.92,11.168 -11.89,23.3985 -14.04,45.7188 h 126 z M 4612.98,3.60156 h 27.36 V 133.559 c 18.72,22.691 38.16,34.203 57.96,34.203 15.84,0 27,-6.84 31.32,-19.442 2.88,-7.558 3.95,-19.8 3.95,-38.879 V 3.60156 h 27.37 V 109.078 c 0,29.16 -2.16,44.281 -7.56,55.082 -8.28,16.559 -25.2,25.559 -47.52,25.559 -25.21,0 -43.93,-9.348 -66.24,-32.758 l -1.08,29.16 h -27 c 1.08,-12.242 1.44,-28.801 1.44,-59.402 V 3.60156 Z M 4536.66,270.371 c -11.16,0 -19.44,-8.281 -19.44,-19.082 0,-11.527 7.92,-19.809 19.44,-19.809 11.16,0 19.44,8.282 19.44,19.442 0,11.168 -8.28,19.449 -19.44,19.449 z M 4522.98,3.60156 h 27.36 V 186.121 h -27.36 V 3.60156 Z M 4357.73,12.5898 C 4375.74,3.96094 4391.93,0 4409.94,0 c 38.52,0 64.08,21.9609 64.08,54.7188 0,25.9218 -10.8,37.4531 -49.68,53.2932 -30.24,12.226 -37.07,18.347 -37.07,32.75 0,16.918 12.59,27 33.47,27 14.76,0 28.08,-4.332 41.4,-13.321 l 8.28,21.598 c -18.36,9.723 -34.2,13.68 -52.2,13.68 -35.28,0 -59.76,-20.52 -59.76,-51.117 0,-12.961 4.67,-24.481 14.04,-33.114 8.28,-7.9294 15.84,-11.8864 36.36,-19.8083 30.95,-12.25 36.35,-16.9102 36.35,-32.75 0,-18.3594 -14.39,-30.9688 -34.91,-30.9688 -13.32,0 -26.99,3.961 -44.28,12.2383 l -8.29,-21.6094 z m -48.94,173.5312 h -27.36 V 56.1602 c -18.36,-22.6797 -37.45,-34.1993 -56.88,-34.1993 -15.48,0 -25.92,6.8477 -30.24,19.4375 -2.88,7.9219 -3.96,19.4414 -3.96,38.8829 V 186.121 h -27.36 V 80.6406 c 0,-29.1601 2.16,-44.2812 7.56,-55.082 C 4178.47,9 4195.03,0 4216.99,0 c 24.12,0 44.28,10.082 65.16,32.7617 l 1.08,-29.16014 h 26.99 c -1.07,12.23824 -1.43,28.79684 -1.43,59.41014 V 186.121 Z M 3996.31,27 v 91.809 h 12.96 c 25.55,0 39.24,-1.809 50.04,-6.129 15.84,-6.84 23.76,-20.1605 23.76,-39.598 0,-18.7226 -6.48,-32.4023 -19.09,-38.8828 C 4053.19,28.4297 4041.31,27 4009.27,27 h -12.96 z m 0,114.121 v 88.199 h 12.96 c 28.07,0 39.24,-1.8 49.68,-7.558 10.8,-6.121 17.28,-19.442 17.28,-36.723 0,-17.277 -6.48,-29.519 -18.36,-36.719 -9,-4.679 -24.48,-7.199 -48.6,-7.199 h -12.96 z M 3967.51,3.60156 h 49.32 c 39.96,0 49.32,1.4375 65.16,9.36724 20.16,10.0703 31.68,30.5898 31.68,56.871 0,36.0002 -19.44,56.5192 -57.24,60.8402 35.28,6.492 50.4,23.761 50.4,57.601 0,27.36 -12.24,47.879 -33.12,56.16 -15.84,6.481 -30.6,8.278 -67.32,8.278 h -38.88 V 3.60156 Z M 3711.19,12.5898 C 3729.19,3.96094 3745.39,0 3763.39,0 c 38.51,0 64.08,21.9609 64.08,54.7188 0,25.9218 -10.8,37.4531 -49.68,53.2932 -30.24,12.226 -37.08,18.347 -37.08,32.75 0,16.918 12.6,27 33.48,27 14.76,0 28.08,-4.332 41.4,-13.321 l 8.28,21.598 c -18.36,9.723 -34.2,13.68 -52.2,13.68 -35.28,0 -59.77,-20.52 -59.77,-51.117 0,-12.961 4.69,-24.481 14.05,-33.114 8.28,-7.9294 15.84,-11.8864 36.35,-19.8083 30.97,-12.25 36.37,-16.9102 36.37,-32.75 0,-18.3594 -14.4,-30.9688 -34.92,-30.9688 -13.32,0 -27,3.961 -44.28,12.2383 l -8.28,-21.6094 z M 3515.72,3.60156 h 27.36 V 133.559 c 18.72,22.691 38.16,34.203 57.96,34.203 15.84,0 27,-6.84 31.32,-19.442 2.87,-7.558 3.96,-19.8 3.96,-38.879 V 3.60156 h 27.36 V 109.078 c 0,29.16 -2.16,44.281 -7.56,55.082 -8.28,16.559 -25.2,25.559 -47.53,25.559 -25.19,0 -43.91,-9.348 -66.23,-32.758 l -1.08,29.16 h -27 c 1.08,-12.242 1.44,-28.801 1.44,-59.402 V 3.60156 Z M 3342.2,109.441 c 1.44,36.36 19.8,58.321 49.32,58.321 29.16,0 45.72,-20.524 46.8,-58.321 h -96.12 z m 125.28,-21.9605 c -0.36,29.5195 -2.88,45.3715 -10.08,62.2815 -10.8,25.918 -33.48,39.957 -65.16,39.957 -49.32,0 -79.56,-35.989 -79.56,-95.0393 C 3312.68,35.6406 3345.44,0 3399.79,0 c 21.97,0 41.41,5.76172 60.84,18.0117 l -10.43,21.2266 c -16.92,-11.8789 -32.76,-17.2774 -50.04,-17.2774 -19.09,0 -34.93,7.1993 -44.64,19.8008 -7.92,11.168 -11.88,23.3985 -14.05,45.7188 h 126.01 z M 3013.15,3.60156 h 27.37 V 133.559 c 17.63,22.691 35.64,34.203 53.64,34.203 13.32,0 22.68,-6.473 27.36,-19.071 2.87,-6.851 3.96,-18.371 3.96,-35.652 V 3.60156 h 27.36 V 133.559 c 17.28,22.691 34.56,34.203 52.56,34.203 14.76,0 24.83,-6.84 28.8,-19.442 2.52,-7.91 3.6,-19.8 3.6,-38.879 V 3.60156 h 27.36 V 109.078 c 0,29.16 -1.8,43.934 -7.2,55.082 -7.56,16.211 -23.76,25.559 -45,25.559 -23.76,0 -40.68,-9.719 -63.72,-35.989 -6.12,23.399 -22.68,35.989 -47.88,35.989 -22.32,0 -39.6,-9 -61.57,-32.399 l -1.07,28.801 h -27 c 1.08,-12.242 1.43,-28.801 1.43,-59.402 V 3.60156 Z M 2839.65,109.441 c 1.44,36.36 19.8,58.321 49.31,58.321 29.17,0 45.73,-20.524 46.81,-58.321 h -96.12 z m 125.28,-21.9605 c -0.36,29.5195 -2.88,45.3715 -10.08,62.2815 -10.8,25.918 -33.48,39.957 -65.16,39.957 -49.32,0 -79.56,-35.989 -79.56,-95.0393 C 2810.13,35.6406 2842.89,0 2897.25,0 c 21.96,0 41.4,5.76172 60.84,18.0117 l -10.44,21.2266 c -16.92,-11.8789 -32.76,-17.2774 -50.04,-17.2774 -19.08,0 -34.92,7.1993 -44.64,19.8008 -7.92,11.168 -11.88,23.3985 -14.04,45.7188 h 126 z M 2747.49,270.371 c -11.16,0 -19.44,-8.281 -19.44,-19.082 0,-11.527 7.92,-19.809 19.44,-19.809 11.16,0 19.44,8.282 19.44,19.442 0,11.168 -8.28,19.449 -19.44,19.449 z M 2733.81,3.60156 h 27.36 V 186.121 h -27.36 V 3.60156 Z M 2537.25,11.1602 C 2561.01,3.60156 2581.17,0 2600.61,0 c 50.41,0 82.44,27.3594 82.44,70.5586 0,19.0898 -6.84,36.0004 -19.81,48.2504 -10.79,10.07 -22.31,16.562 -50.03,28.07 -36,15.121 -47.88,26.641 -47.88,47.519 0,22.321 19.44,38.161 47.16,38.161 17.28,0 34.56,-4.321 53.28,-13.321 l 5.75,25.922 c -24.12,7.922 -41.39,11.172 -58.67,11.172 -47.88,0 -78.12,-26.293 -78.12,-67.332 0,-18.359 6.48,-32.75 19.08,-43.551 9.72,-8.66 18.36,-13.32 47.88,-26.289 23.76,-10.801 32.39,-15.469 39.6,-22.3202 7.2,-6.8398 11.16,-16.9179 11.16,-28.8007 0,-27 -19.8,-44.2696 -50.76,-44.2696 -18.36,0 -37.44,3.9493 -60.84,12.5899 l -3.6,-25.1992 z M 2350.06,114.48 h -75.6 l 22.68,65.52 c 6.12,18.012 6.84,20.52 8.64,25.922 1.8,5.758 2.52,8.277 6.84,22.316 5.04,-17.636 8.64,-29.16 15.12,-48.238 l 22.32,-65.52 z m 8.64,-23.7612 30.6,-87.11724 h 30.96 L 2330.98,252.719 h -36.36 L 2206.06,3.60156 h 29.16 l 30.6,87.11724 h 92.88 v 0" /><path
         id="path16"
         style="fill:#a80c30;fill-opacity:1;fill-rule:nonzero;stroke:none"
         d="m 4893.76,1219.46 c 0,62.13 50.38,107.93 109.97,107.93 58.98,0 109.4,-45.8 109.4,-107.93 0,-62.71 -50.42,-108.55 -109.4,-108.55 -59.59,0 -109.97,45.84 -109.97,108.55 v 0 z m 109.97,-90.53 c 48.98,0 87.63,38.42 87.63,90.53 0,51.25 -38.65,89.89 -87.63,89.89 -49.54,0 -88.2,-38.64 -88.2,-89.89 0,-52.11 38.66,-90.53 88.2,-90.53 v 0 z m -20.96,33.87 h -17.25 v 114.06 h 43.4 c 26.94,0 40.29,-9.96 40.29,-32.42 0,-20.44 -12.81,-29.34 -29.55,-31.42 l 32.41,-50.22 h -19.33 l -30.1,49.46 h -19.87 v -49.46 0 z m 20.67,64.1 c 14.63,0 27.72,1.04 27.72,18.55 0,14.13 -12.8,16.75 -24.85,16.75 h -23.54 v -35.3 h 20.67 v 0 z M 2972.52,501.129 v 0 634.971 c 0,98.03 -125.23,196.01 -230.28,215.6 -113.05,16.56 -214.08,-21.46 -290.94,-101.36 v 0 c -15.54,50.89 -15.08,77.87 -15.08,77.87 h -223.5 V 501.129 h 230.27 c 0,0 0,457.851 0,526.461 0,68.57 104.79,125.1 169.61,114.56 60.31,-4.51 128.88,-52.48 128.88,-104.03 V 501.129 h 231.04 z m -869.46,654.251 v 0 c -85.93,156.76 -275.88,239.69 -455.31,192.94 -128.12,-24.09 -245.71,-146.23 -286.43,-266.82 -52.78,-140.219 -25.62,-316.57 61.81,-431.133 111.54,-143.242 292.47,-182.418 465.83,-150.75 66.34,21.074 138.71,39.168 189.96,93.438 v 176.386 l -4.52,4.539 c -64.85,-40.722 -129.67,-78.417 -208.05,-85.917 -94.98,-9.083 -188.44,31.64 -251.78,105.507 -1.48,4.512 -2.99,12.047 4.55,16.559 l 536.71,1.519 9.01,4.54 c 1.52,116.082 -9.01,239.672 -61.78,339.192 z m -280.43,-10.58 v 0 c 22.61,-15.07 45.24,-36.17 57.29,-58.79 9.04,-22.58 16.59,-48.23 13.56,-73.85 l -10.54,-9.05 h -256.28 c -9.06,0 -19.59,3.03 -21.11,12.05 -1.52,52.77 24.09,97.98 69.33,125.14 39.21,27.13 107.07,27.13 147.75,4.5 z m 2671.39,179.43 v 0 H 4240.77 V 501.129 h 259.3 v 483.883 c 1.5,46.738 15.06,90.458 57.29,116.078 76.88,31.67 171.86,19.62 263.81,19.62 l -1.49,202 c -110.09,-9.05 -245.74,37.69 -310.58,-69.36 l -6.01,6.02 c -1.52,22.61 1.51,45.24 -9.07,64.86 z m -877.39,-278.91 v 0 h -238.19 c -31.67,-61.828 -43.72,-135.699 -31.67,-211.058 16.6,-161.278 168.86,-298.485 316.6,-340.692 161.31,-37.66 319.6,10.559 432.65,135.696 107.07,113.054 138.73,298.457 72.4,440.184 -58.8,144.68 -194.89,259.28 -346.77,259.28 h -541.46 v 160.53 H 3031.68 V 501.129 h 248.51 v 625.951 h 475.16 c 54.26,-2.99 105.52,-21.45 147.72,-57.63 64.82,-58.8 90.47,-149.262 61.82,-235.188 -19.59,-64.821 -87.44,-120.594 -152.25,-135.672 -67.85,-10.527 -134.2,4.551 -182.46,52.769 -52.74,51.266 -78.38,126.621 -61.78,198.977 6.01,36.184 30.15,63.314 48.23,94.984 z M 0,501.129 V 1487.02 H 388.961 L 661.809,761.898 916.582,1487.02 H 1291.98 V 501.129 H 1050.77 V 1123.7 L 798.988,501.129 H 489.957 L 247.992,1123.7 V 501.129 H 0 v 0 0" /></g></g></svg>